<svg id="Layer_1" data-name="Layer 1" xmlns="http://www.w3.org/2000/svg" viewBox="0 0 242.86 328.7"><defs><style>.cls-1{fill:none;}.cls-1,.cls-2{stroke:#231f20;stroke-miterlimit:10;stroke-width:11px;}.cls-2{fill:#231f20;}</style></defs><path class="cls-1" d="M334.23,592H221c-27.13,0-39.12-22.92-39.12-51.19l-10-192.34H383.35l-10,192.34C373.35,569.12,361.36,592,334.23,592Z" transform="translate(-156.16 -268.85)"/><path class="cls-2" d="M21.88,60H221A16.38,16.38,0,0,1,237.36,76.4v0a3.27,3.27,0,0,1-3.27,3.27H8.77A3.27,3.27,0,0,1,5.5,76.4v0A16.38,16.38,0,0,1,21.88,60Z"/><path class="cls-2" d="M347.74,308.5v14H207.44v-14a34.16,34.16,0,0,1,34.16-34.15h72A34.15,34.15,0,0,1,347.74,308.5Zm-29.93-6.22v-7.71a9.4,9.4,0,0,0-9.4-9.4H246.78a9.4,9.4,0,0,0-9.4,9.4v7.71a9.4,9.4,0,0,0,9.4,9.4h61.63A9.4,9.4,0,0,0,317.81,302.28Z" transform="translate(-156.16 -268.85)"/><line class="cls-1" x1="47.37" y1="97.79" x2="55.18" y2="293.11"/><line class="cls-1" x1="195.48" y1="97.79" x2="187.67" y2="293.11"/><line class="cls-1" x1="85.59" y1="97.79" x2="89.37" y2="293.11"/><line class="cls-1" x1="157.27" y1="97.79" x2="153.49" y2="293.11"/><line class="cls-1" x1="121.43" y1="97.79" x2="121.43" y2="294"/></svg>