<svg id="Layer_1" data-name="Layer 1" xmlns="http://www.w3.org/2000/svg" viewBox="0 0 158.63 158.39"><defs><style>.cls-1{fill:none;}.cls-1,.cls-2{stroke:#231f20;stroke-miterlimit:10;stroke-width:4px;}.cls-2{fill:#231f20;}</style></defs><path class="cls-1" d="M295,425.59,252.46,383l59.17-59.17,29.56-29.57a14.33,14.33,0,0,1,20.27,0l22.28,22.28a14.33,14.33,0,0,1,0,20.27Z" transform="translate(-231.31 -288.1)"/><path class="cls-1" d="M235.55,444.42l58.94-18.25a1.73,1.73,0,0,0,.71-2.87l-40.7-40.7a1.72,1.72,0,0,0-2.86.71l-18.25,58.95A1.73,1.73,0,0,0,235.55,444.42Z" transform="translate(-231.31 -288.1)"/><rect class="cls-1" x="341.77" y="297.18" width="18.01" height="60.18" transform="translate(598.92 22.55) rotate(135)"/><polygon class="cls-2" points="6.02 152.62 22.85 147.13 11.5 135.78 6.02 152.62"/></svg>